<?xml version="1.0" encoding="UTF-8" standalone="no"?>
<!-- Generator: Gravit.io -->
<svg xmlns="http://www.w3.org/2000/svg" xmlns:xlink="http://www.w3.org/1999/xlink" style="isolation:isolate" viewBox="0 0 1400 980" width="1400pt" height="980pt"><clipPath id="_clipPath_Jd6liHi1KLHcSiXLnOqOi9ttTg9RHPXc"><path d=" M -179 60 L 1221 60 L 1221 1040 L -179 1040 L -179 60 Z " fill="rgb(255,255,255)"/></clipPath><g clip-path="url(#_clipPath_Jd6liHi1KLHcSiXLnOqOi9ttTg9RHPXc)"><path d=" M 895.739 249.472 C 895.739 286.175 890.964 335.851 875.109 335.851 C 866.466 335.851 864.439 319.378 864.439 249.472 C 864.439 212.768 871.446 202.936 880.089 202.936 C 888.733 202.936 895.739 212.768 895.739 249.472 Z " fill="rgb(170,218,233)"/><path d=" M 695.451 249.472 C 695.451 286.175 700.226 335.851 716.081 335.851 C 724.724 335.851 726.751 319.378 726.751 249.472 C 726.751 212.768 719.744 202.936 711.101 202.936 C 702.457 202.936 695.451 212.768 695.451 249.472 Z " fill="rgb(170,218,233)"/><path d=" M 831 353.303 C 840.537 345.868 852.82 353.141 851.851 363.324 C 850.881 373.508 844.416 375.77 829.061 375.77 C 813.706 375.77 806.594 372.699 806.594 367.527 C 806.594 362.355 806.788 357.758 806.788 357.758 C 806.788 357.758 806.41 346.354 820.979 346.354 C 829.249 346.354 831 353.303 831 353.303 Z " fill="rgb(129,177,195)"/><path d=" M 803.606 315.867 L 806.787 357.758 L 811.765 353.465 L 816.129 357.758 L 819.523 352.819 L 825.504 357.758 L 830.999 353.303 L 834.394 314.35 L 803.606 315.867 Z " fill="rgb(170,218,233)"/><path d=" M 760.191 353.303 C 750.654 345.868 738.371 353.141 739.34 363.324 C 740.31 373.508 746.775 375.77 762.13 375.77 C 777.485 375.77 784.597 372.699 784.597 367.527 C 784.597 362.355 784.403 357.758 784.403 357.758 C 784.403 357.758 784.781 346.354 770.212 346.354 C 761.942 346.354 760.191 353.303 760.191 353.303 Z " fill="rgb(129,177,195)"/><path d=" M 787.584 315.867 L 784.403 357.758 L 779.425 353.465 L 775.061 357.758 L 771.667 352.819 L 765.686 357.758 L 760.191 353.303 L 756.796 314.35 L 787.584 315.867 Z " fill="rgb(170,218,233)"/><path d=" M 795.595 332.118 C 792.045 348.808 771.118 337.475 771.118 329.059 C 764.244 341.583 751.29 331.618 745.787 317.453 C 731.6 326.543 726.132 293.623 731.04 277.393 C 719.101 284.985 715.057 258.795 723.176 243.241 C 709.299 252.434 701.767 226.258 704.327 208.637 C 691.306 214.387 693.976 182.723 700.998 168.067 C 686.482 178.159 692.143 140.563 703.6 129.106 C 687.561 129.106 706.807 103.443 729.489 103.443 C 715.855 89.808 746.677 85.571 764.091 93.517 C 754.009 75.343 782.135 78.068 795.595 91.528 C 809.055 78.068 837.181 75.343 827.099 93.517 C 844.513 85.571 875.335 89.808 861.701 103.443 C 884.383 103.443 903.629 129.106 887.59 129.106 C 899.047 140.563 904.708 178.159 890.192 168.067 C 897.214 182.723 899.884 214.387 886.863 208.637 C 889.423 226.258 881.891 252.434 868.014 243.241 C 876.133 258.795 872.089 284.985 860.15 277.393 C 865.058 293.623 859.59 326.543 845.403 317.453 C 839.9 331.618 826.946 341.583 820.072 329.059 C 820.072 337.475 799.145 348.808 795.595 332.118 Z " fill="rgb(204,234,244)"/><path d=" M 882.747 176.529 C 882.747 217.66 858.84 245.529 795.596 245.529 C 732.353 245.529 708.445 217.66 708.445 176.529 C 708.445 132.377 732.353 107.53 795.596 107.53 C 858.84 107.53 882.747 132.377 882.747 176.529 Z " fill="rgb(170,218,233)"/><path d=" M 756.528 162.701 C 756.528 154.838 750.152 148.461 742.288 148.461 C 734.424 148.461 728.049 154.838 728.049 162.701 C 728.049 170.565 734.424 176.941 742.288 176.941 C 750.152 176.941 756.528 170.565 756.528 162.701 Z " fill="rgb(14,77,108)"/><path d=" M 861.391 162.701 C 861.391 154.838 855.016 148.461 847.151 148.461 C 839.287 148.461 832.912 154.838 832.912 162.701 C 832.912 170.565 839.287 176.941 847.151 176.941 C 855.016 176.941 861.391 170.565 861.391 162.701 Z " fill="rgb(14,77,108)"/><path d=" M 817.07 217.987 L 772.37 217.987 C 768.971 217.987 766.218 215.232 766.218 211.835 C 766.218 208.438 768.971 205.683 772.37 205.683 L 817.07 205.683 C 820.467 205.683 823.221 208.438 823.221 211.835 C 823.221 215.232 820.467 217.987 817.07 217.987 Z " fill="rgb(14,77,108)"/></g></svg>